<mxfile host="app.diagrams.net" modified="2024-02-20T14:22:19.405Z" agent="Mozilla/5.0 (Windows NT 10.0; Win64; x64; rv:122.0) Gecko/20100101 Firefox/122.0" version="22.1.17" etag="YGS7SQtHXZveYi5gvTGY" type="github">
  <diagram name="Seite-1" id="FU4IHKmcj0jUxzMuik8A">
    <mxGraphModel>
      <root>
        <mxCell id="0" />
        <mxCell id="1" parent="0" />
      </root>
    </mxGraphModel>
  </diagram>
</mxfile>
